<?xml version="1.0" standalone="no"?><svg xmlns="http://www.w3.org/2000/svg" viewBox="0 0 1440 320"><path fill="#ffffff" fill-opacity="1" d="M0,160L24,149.3C48,139,96,117,144,133.3C192,149,240,203,288,192C336,181,384,107,432,106.7C480,107,528,181,576,186.7C624,192,672,128,720,122.7C768,117,816,171,864,197.3C912,224,960,224,1008,202.7C1056,181,1104,139,1152,138.7C1200,139,1248,181,1296,197.3C1344,213,1392,203,1416,197.3L1440,192L1440,0L1416,0C1392,0,1344,0,1296,0C1248,0,1200,0,1152,0C1104,0,1056,0,1008,0C960,0,912,0,864,0C816,0,768,0,720,0C672,0,624,0,576,0C528,0,480,0,432,0C384,0,336,0,288,0C240,0,192,0,144,0C96,0,48,0,24,0L0,0Z"></path></svg>